0
SECTION
2
HEADER
9
$INSUNITS
70
4
9
$ACADVER
1
AC1014
9
$HANDSEED
5
FFFF
0
ENDSEC
0
SECTION
2
TABLES
0
TABLE
2
VPORT
5
8
100
AcDbSymbolTable
0
ENDTAB
0
TABLE
2
LTYPE
5
5
100
AcDbSymbolTable
0
LTYPE
5
14
100
AcDbSymbolTableRecord
100
AcDbLinetypeTableRecord
2
BYBLOCK
70
0
0
LTYPE
5
15
100
AcDbSymbolTableRecord
100
AcDbLinetypeTableRecord
2
BYLAYER
70
0
0
ENDTAB
0
TABLE
2
LAYER
5
2
100
AcDbSymbolTable
70
2
0
LAYER
5
50
100
AcDbSymbolTableRecord
100
AcDbLayerTableRecord
2
0
70
0
6
CONTINUOUS
0
ENDTAB
0
TABLE
2
STYLE
5
3
100
AcDbSymbolTable
70
1
0
STYLE
5
11
100
AcDbSymbolTableRecord
100
AcDbTextStyleTableRecord
2
STANDARD
70
0
0
ENDTAB
0
TABLE
2
VIEW
5
6
100
AcDbSymbolTable
70
0
0
ENDTAB
0
TABLE
2
UCS
5
7
100
AcDbSymbolTable
70
0
0
ENDTAB
0
TABLE
2
APPID
5
9
100
AcDbSymbolTable
70
2
0
APPID
5
12
100
AcDbSymbolTableRecord
100
AcDbRegAppTableRecord
2
ACAD
70
0
0
ENDTAB
0
TABLE
2
DIMSTYLE
5
A
100
AcDbSymbolTable
70
1
0
ENDTAB
0
TABLE
2
BLOCK_RECORD
5
1
100
AcDbSymbolTable
70
1
0
BLOCK_RECORD
5
1F
100
AcDbSymbolTableRecord
100
AcDbBlockTableRecord
2
*MODEL_SPACE
0
BLOCK_RECORD
5
1B
100
AcDbSymbolTableRecord
100
AcDbBlockTableRecord
2
*PAPER_SPACE
0
ENDTAB
0
ENDSEC
0
SECTION
2
BLOCKS
0
BLOCK
5
20
100
AcDbEntity
100
AcDbBlockBegin
2
*MODEL_SPACE
0
ENDBLK
5
21
100
AcDbEntity
100
AcDbBlockEnd
0
BLOCK
5
1C
100
AcDbEntity
100
AcDbBlockBegin
2
*PAPER_SPACE
0
ENDBLK
5
1D
100
AcDbEntity
100
AcDbBlockEnd
0
ENDSEC
0
SECTION
2
ENTITIES
0
CIRCLE
5
100
100
AcDbEntity
8
0
100
AcDbCircle
10
-61.999998557320964
20
-509.75099931000102
30
0
40
1.5000000000000122
0
CIRCLE
5
101
100
AcDbEntity
8
0
100
AcDbCircle
10
-132.24999855732096
20
-509.75099979602714
30
0
40
1.5000000000000213
0
CIRCLE
5
102
100
AcDbEntity
8
0
100
AcDbCircle
10
-202.50005327824147
20
-509.75100028205372
30
0
40
1.5000000000000213
0
CIRCLE
5
103
100
AcDbEntity
8
0
100
AcDbCircle
10
202.50005327823993
20
-509.75100028202792
30
0
40
1.5000000000000213
0
CIRCLE
5
104
100
AcDbEntity
8
0
100
AcDbCircle
10
99.999999999999218
20
-86.750998881057029
30
0
40
1.4999999999999858
0
CIRCLE
5
105
100
AcDbEntity
8
0
100
AcDbCircle
10
-7.815970093361102e-13
20
-86.750998881053079
30
0
40
1.5000000000000044
0
CIRCLE
5
106
100
AcDbEntity
8
0
100
AcDbCircle
10
132.2499985573194
20
-509.75099979601026
30
0
40
1.5000000000000213
0
CIRCLE
5
107
100
AcDbEntity
8
0
100
AcDbCircle
10
-196.00005053030682
20
-86.750998881053079
30
0
40
1.4999999999999858
0
CIRCLE
5
108
100
AcDbEntity
8
0
100
AcDbCircle
10
196.0000532782401
20
-86.750998881053079
30
0
40
1.4999999999999858
0
CIRCLE
5
109
100
AcDbEntity
8
0
100
AcDbCircle
10
-100.00000000000078
20
-86.750998881053079
30
0
40
1.4999999999999858
0
CIRCLE
5
110
100
AcDbEntity
8
0
100
AcDbCircle
10
61.999998557319401
20
-509.75099930999312
30
0
40
1.5000000000000122
0
LWPOLYLINE
5
111
100
AcDbEntity
8
0
100
AcDbPolyline
90
28
70
1
43
0.0
10
-287.99999892809535
20
-103.73615892995245
42
-0.41433305292782679
10
-282.99795911426941
20
-98.736159414735297
10
-246.00005069518738
20
-98.751253185017177
10
-246.00005046160652
20
-81.750890063542428
42
-0.41421356237308565
10
-241.00005039290789
20
-76.750890132241224
10
1.4426660754907061e-06
20
-76.750893443518393
10
241.00005327824005
20
-76.75089344351845
42
-0.41421356237308671
10
246.00005327823999
20
-81.750893443518336
10
246.00005327824027
20
-98.751256564993071
10
282.99796169752966
20
-98.736163303052621
42
-0.41433305292782124
10
288.00000144265709
20
-103.73616288699651
10
288.00000144266414
20
-489.75118743840312
42
-0.41421356237309293
10
283.00000144266414
20
-494.75118743840312
10
242.50005327823996
20
-494.75118743840312
10
242.50005327823993
20
-511.75089338471207
42
-0.41421356439944279
10
237.50005324364798
20
-516.75089338471207
10
26.999998522727395
20
-516.75089192838971
42
-0.41421356034674306
10
21.999998557319405
20
-511.75089192838971
10
21.999998557319405
20
-494.75118743840312
10
-22.000001442680599
20
-494.75118743840312
10
-22.00000144268062
20
-511.7508915547964
42
-0.41421356439944568
10
-27.00000147727259
20
-516.75089155479645
10
-237.50005070493125
20
-516.75089009847397
42
-0.41421356053354547
10
-242.50005067033928
20
-511.75089009528511
10
-242.5000506607729
20
-496.75118410651635
10
-242.50005063329343
20
-494.75118410651635
10
-283.00000430054581
20
-494.75118355005793
42
-0.41421356237310542
10
-288.00000423184724
20
-489.75118348135913
0
LINE
5
112
100
AcDbEntity
8
0
100
AcDbLine
10
-644.66145733879341
20
-524.27758330896302
30
0
11
-643.24724377642042
21
-525.69179687133624
31
0
0
LINE
5
113
100
AcDbEntity
8
0
100
AcDbLine
10
-645.36856411997996
20
-527.81311721489578
30
0
11
-646.78277768235307
21
-526.39890365252268
31
0
0
LWPOLYLINE
5
114
100
AcDbEntity
8
0
100
AcDbPolyline
90
4
70
1
43
0.0
10
-587.26701072938704
20
-84.594350261928668
42
-0.99999999999999989
10
-584.26701072938715
20
-84.594350261928611
10
-584.26701072938704
20
-86.594350261928639
42
-0.99999999999999989
10
-587.26701072938704
20
-86.594350261928639
0
LWPOLYLINE
5
115
100
AcDbEntity
8
0
100
AcDbPolyline
90
4
70
1
43
0.0
10
-644.66145733879284
20
-375.46311721489599
10
-643.24724377641985
20
-374.04890365252271
42
0.99999999999999989
10
-645.36856411997951
20
-371.92758330896316
10
-646.7827776823525
20
-373.34179687133627
42
0.99999999999999989
0
LWPOLYLINE
5
116
100
AcDbEntity
8
0
100
AcDbPolyline
90
4
70
1
43
0.0
10
-844.7670107293867
20
-436.96985026192817
42
-0.99999999999999989
10
-844.7670107293867
20
-433.96985026192823
10
-842.76701072938647
20
-433.96985026192846
42
-0.99999999999999989
10
-842.76701072938681
20
-436.96985026192829
0
LWPOLYLINE
5
117
100
AcDbEntity
8
0
100
AcDbPolyline
90
4
70
1
43
0.0
10
-844.7670107293867
20
-526.96985026192817
42
-0.99999999999999989
10
-844.7670107293867
20
-523.96985026192817
10
-842.76701072938647
20
-523.9698502619284
42
-0.99999999999999989
10
-842.76701072938681
20
-526.96985026192817
0
LWPOLYLINE
5
118
100
AcDbEntity
8
0
100
AcDbPolyline
90
4
70
1
43
0.0
10
-587.26701072938704
20
-604.34535026192805
42
-0.99999999999999989
10
-584.26701072938704
20
-604.34535026192793
10
-584.26701072938727
20
-606.34535026192782
42
-0.99999999999999989
10
-587.26701072938704
20
-606.34535026192793
0
LWPOLYLINE
5
119
100
AcDbEntity
8
0
100
AcDbPolyline
90
4
70
1
43
0.0
10
-494.26701072938727
20
-606.34535026192782
42
-0.99999999999999989
10
-497.26701072938727
20
-606.34535026192793
10
-497.26701072938727
20
-604.34535026192805
42
-0.99999999999999989
10
-494.26701072938715
20
-604.34535026192793
0
LWPOLYLINE
5
120
100
AcDbEntity
8
0
100
AcDbPolyline
90
4
70
1
43
0.0
10
-404.26701072938732
20
-606.34535026192793
10
-404.26701072938721
20
-604.34535026192793
42
0.99999999999999989
10
-407.26701072938727
20
-604.34535026192793
10
-407.26701072938732
20
-606.34535026192793
42
0.99999999999999989
0
LWPOLYLINE
5
121
100
AcDbEntity
8
0
100
AcDbPolyline
90
4
70
1
43
0.0
10
-328.76701072938727
20
-526.96985026192829
10
-326.76701072938727
20
-526.96985026192817
42
0.99999999999999989
10
-326.76701072938732
20
-523.96985026192817
10
-328.76701072938727
20
-523.96985026192829
42
0.99999999999999989
0
LWPOLYLINE
5
122
100
AcDbEntity
8
0
100
AcDbPolyline
90
4
70
1
43
0.0
10
-328.76701072938727
20
-436.9698502619284
42
-0.99999999999999989
10
-328.76701072938727
20
-433.96985026192829
10
-326.76701072938738
20
-433.96985026192823
42
-0.99999999999999989
10
-326.76701072938727
20
-436.96985026192817
0
LWPOLYLINE
5
123
100
AcDbEntity
8
0
100
AcDbPolyline
90
8
70
1
43
0.0
10
-317.76701072938886
20
-610.34535026192805
42
-0.4142135623730992
10
-322.76701072938874
20
-615.34535026192805
10
-848.76701072938658
20
-615.34535026192793
42
-0.41421356237310752
10
-853.7670107293867
20
-610.34535026192805
10
-853.76701072938658
20
-80.594350261928582
42
-0.41421356237308671
10
-848.7670107293867
20
-75.594350261928582
10
-322.76701072938874
20
-75.594350261928568
42
-0.41421356237309609
10
-317.76701072938874
20
-80.594350261928582
0
LWPOLYLINE
5
124
100
AcDbEntity
8
0
100
AcDbPolyline
90
4
70
1
43
0.0
10
-842.76701072938647
20
-163.96985026192866
42
-0.99999999999999989
10
-842.76701072938681
20
-166.96985026192863
10
-844.7670107293867
20
-166.96985026192851
42
-0.99999999999999989
10
-844.7670107293867
20
-163.96985026192854
0
LWPOLYLINE
5
125
100
AcDbEntity
8
0
100
AcDbPolyline
90
4
70
1
43
0.0
10
-644.66145733879284
20
-223.11311721489616
42
-0.99999999999999989
10
-646.7827776823525
20
-220.99179687133648
10
-645.36856411997951
20
-219.57758330896343
42
-0.99999999999999989
10
-643.24724377641985
20
-221.69890365252297
0
LWPOLYLINE
5
126
100
AcDbEntity
8
0
100
AcDbPolyline
90
4
70
1
43
0.0
10
-844.7670107293867
20
-346.96985026192834
10
-842.76701072938681
20
-346.96985026192851
42
0.99999999999999989
10
-842.76701072938658
20
-343.96985026192851
10
-844.7670107293867
20
-343.9698502619284
42
0.99999999999999989
0
LWPOLYLINE
5
127
100
AcDbEntity
8
0
100
AcDbPolyline
90
4
70
1
43
0.0
10
-677.26701072938704
20
-84.594350261928668
42
-0.99999999999999989
10
-674.26701072938704
20
-84.594350261928611
10
-674.26701072938681
20
-86.594350261928639
42
-0.99999999999999989
10
-677.26701072938693
20
-86.594350261928639
0
LWPOLYLINE
5
128
100
AcDbEntity
8
0
100
AcDbPolyline
90
4
70
1
43
0.0
10
-844.7670107293867
20
-256.9698502619284
10
-842.76701072938681
20
-256.96985026192851
42
0.99999999999999989
10
-842.76701072938658
20
-253.96985026192854
10
-844.7670107293867
20
-253.96985026192846
42
0.99999999999999989
0
LWPOLYLINE
5
129
100
AcDbEntity
8
0
100
AcDbPolyline
90
4
70
1
43
0.0
10
-764.26701072938704
20
-86.594350261928639
42
-0.99999999999999989
10
-767.26701072938681
20
-86.594350261928639
10
-767.26701072938704
20
-84.594350261928668
42
-0.99999999999999989
10
-764.26701072938704
20
-84.594350261928611
0
LWPOLYLINE
5
130
100
AcDbEntity
8
0
100
AcDbPolyline
90
4
70
1
43
0.0
10
-404.26701072938715
20
-86.594350261928696
42
-0.99999999999999989
10
-407.26701072938727
20
-86.594350261928639
10
-407.26701072938732
20
-84.59435026192871
42
-0.99999999999999989
10
-404.26701072938732
20
-84.594350261928611
0
LWPOLYLINE
5
131
100
AcDbEntity
8
0
100
AcDbPolyline
90
4
70
1
43
0.0
10
-328.76701072938727
20
-166.96985026192866
42
-0.99999999999999989
10
-328.76701072938727
20
-163.96985026192863
10
-326.76701072938727
20
-163.96985026192849
42
-0.99999999999999989
10
-326.76701072938727
20
-166.96985026192851
0
LWPOLYLINE
5
132
100
AcDbEntity
8
0
100
AcDbPolyline
90
4
70
1
43
0.0
10
-764.26701072938715
20
-606.34535026192782
42
-0.99999999999999989
10
-767.26701072938693
20
-606.34535026192793
10
-767.26701072938693
20
-604.34535026192805
42
-0.99999999999999989
10
-764.26701072938681
20
-604.34535026192793
0
LWPOLYLINE
5
133
100
AcDbEntity
8
0
100
AcDbPolyline
90
4
70
1
43
0.0
10
-497.26701072938727
20
-84.594350261928639
10
-497.26701072938715
20
-86.594350261928639
42
0.99999999999999989
10
-494.26701072938715
20
-86.594350261928653
10
-494.26701072938727
20
-84.594350261928611
42
0.99999999999999989
0
LWPOLYLINE
5
134
100
AcDbEntity
8
0
100
AcDbPolyline
90
4
70
1
43
0.0
10
-674.26701072938704
20
-606.34535026192782
42
-0.99999999999999989
10
-677.26701072938704
20
-606.34535026192793
10
-677.26701072938681
20
-604.34535026192805
42
-0.99999999999999989
10
-674.26701072938704
20
-604.34535026192793
0
LWPOLYLINE
5
135
100
AcDbEntity
8
0
100
AcDbPolyline
90
4
70
1
43
0.0
10
-328.76701072938727
20
-346.9698502619284
42
-0.99999999999999989
10
-328.76701072938727
20
-343.96985026192846
10
-326.76701072938727
20
-343.96985026192823
42
-0.99999999999999989
10
-326.76701072938727
20
-346.96985026192834
0
LWPOLYLINE
5
136
100
AcDbEntity
8
0
100
AcDbPolyline
90
4
70
1
43
0.0
10
-326.76701072938727
20
-253.96985026192846
42
-0.99999999999999989
10
-326.76701072938727
20
-256.9698502619284
10
-328.76701072938744
20
-256.96985026192857
42
-0.99999999999999989
10
-328.76701072938727
20
-253.96985026192851
0
ARC
5
137
100
AcDbEntity
8
0
100
AcDbCircle
10
-644.30790394820019
20
-526.75245704311601
30
0
40
1.499999999999972
100
AcDbArc
50
-135
51
45
0
ARC
5
138
100
AcDbEntity
8
0
100
AcDbCircle
10
-645.7221175105733
20
-525.33824348074279
30
0
40
1.4999999999999216
100
AcDbArc
50
44.999999999996923
51
225.00000000000304
0
LWPOLYLINE
5
139
100
AcDbEntity
8
0
100
AcDbPolyline
90
19
70
1
43
0.0
10
-277.99999999999932
20
-980.76606090870291
10
-277.9999999999992
20
-804.51794672176538
42
-0.41421356237311169
10
-272.9999999999992
20
-799.51794672176538
10
-194.99999999979909
20
-799.51794672176629
42
0.4142135623730992
10
-189.99999999979903
20
-794.51794672176629
10
-189.99999999979903
20
-732.51805327824081
42
0.41421356237309503
10
-194.99999999979903
20
-727.51805327824104
10
-272.99999999999932
20
-727.51805327824081
42
-0.41421356237309293
10
-277.99999999999932
20
-722.51805327824081
10
-277.99999999999926
20
-601.76594672175816
42
-0.41421356237309293
10
-272.99999999999932
20
-596.76594672175816
10
-236.00010655648396
20
-596.76594672175816
10
-236.00010655648396
20
-569.76600000001031
42
-0.41421356237309709
10
-231.00010655648393
20
-564.76600000001019
10
-15.99999999999927
20
-564.76600000001019
42
-0.41421356237309426
10
-10.99999999999927
20
-569.76600000001019
10
-10.999999999999302
20
-980.76606090870291
42
-0.41421356237309426
10
-15.999999999999304
20
-985.76606090870291
10
-272.99999999999932
20
-985.76606090870291
42
-0.41421356237309293
0
LWPOLYLINE
5
140
100
AcDbEntity
8
0
100
AcDbPolyline
90
27
70
1
43
0.0
10
81.000000000000739
20
-980.76606090870291
10
81.000000000000725
20
-975.76606090870291
42
0.99999999999999989
10
61.000000000000725
20
-975.76606090870291
10
61.000000000000718
20
-980.76606090870291
42
-0.41421356237309453
10
56.000000000000725
20
-985.76606090870291
10
16.000000000000743
20
-985.76606090870291
42
-0.41421356237309453
10
11.000000000000723
20
-980.76606090870291
10
11.000000000000734
20
-569.76600000001019
42
-0.41421356237309243
10
16.000000000000689
20
-564.76600000001019
10
231.00010944184564
20
-564.76600000001008
42
-0.41421356237309293
10
236.00010944184564
20
-569.76600000001019
10
236.00010944184564
20
-594.76593886653791
10
258.00010944211203
20
-594.7659974729138
10
258.00010944158646
20
-594.76589747291371
10
273.00000288536091
20
-594.76594672175804
42
-0.41421356237308876
10
278.00000288536097
20
-599.76594672175804
10
278.00000288536097
20
-722.51805327824081
42
-0.41421356237309503
10
273.00000288536097
20
-727.51805327824081
10
195.00000288516074
20
-727.51805327824104
42
0.41421356237308671
10
190.00000288516074
20
-732.51805327824081
10
190.00000288516074
20
-794.51794672176629
42
0.4142135623730992
10
195.0000028851608
20
-799.51794672176652
10
273.00000288536091
20
-799.51794672176538
42
-0.4142135623730992
10
278.00000288536097
20
-804.51794672176538
10
278.00000288536091
20
-980.76606090870291
42
-0.41421356237309087
10
273.00000288536097
20
-985.76606090870291
10
86.000000000000725
20
-985.76606090870291
42
-0.41421356237309398
0
LWPOLYLINE
5
141
100
AcDbEntity
8
0
100
AcDbPolyline
90
4
70
1
43
0.0
10
555.33854266120727
20
-223.11311721489616
42
-0.99999999999999989
10
553.21722231764761
20
-220.99179687133648
10
554.63143588002072
20
-219.57758330896343
42
-0.99999999999999989
10
556.75275622358026
20
-221.69890365252297
0
LWPOLYLINE
5
142
100
AcDbEntity
8
0
100
AcDbPolyline
90
4
70
1
43
0.0
10
792.73298927061273
20
-84.594350261928582
10
792.73298927061296
20
-86.594350261928582
42
0.99999999999999989
10
795.73298927061285
20
-86.594350261928597
10
795.73298927061273
20
-84.594350261928554
42
0.99999999999999989
0
LWPOLYLINE
5
143
100
AcDbEntity
8
0
100
AcDbPolyline
90
4
70
1
43
0.0
10
702.73298927061296
20
-604.34535026192793
10
702.73298927061296
20
-606.34535026192793
42
0.99999999999999989
10
705.73298927061285
20
-606.34535026192793
10
705.73298927061296
20
-604.34535026192793
42
0.99999999999999989
0
LWPOLYLINE
5
144
100
AcDbEntity
8
0
100
AcDbPolyline
90
4
70
1
43
0.0
10
871.23298927061285
20
-346.96985026192851
10
873.23298927061285
20
-346.96985026192834
42
0.99999999999999989
10
873.23298927061273
20
-343.9698502619284
10
871.23298927061285
20
-343.9698502619284
42
0.99999999999999989
0
LWPOLYLINE
5
145
100
AcDbEntity
8
0
100
AcDbPolyline
90
4
70
1
43
0.0
10
705.73298927061296
20
-86.594350261928597
10
705.73298927061285
20
-84.594350261928568
42
0.99999999999999989
10
702.73298927061296
20
-84.594350261928611
10
702.73298927061296
20
-86.594350261928597
42
0.99999999999999989
0
LWPOLYLINE
5
146
100
AcDbEntity
8
0
100
AcDbPolyline
90
4
70
1
43
0.0
10
355.2329892706133
20
-166.96985026192851
42
-0.99999999999999989
10
355.2329892706133
20
-163.96985026192854
10
357.23298927061336
20
-163.96985026192874
42
-0.99999999999999989
10
357.23298927061336
20
-166.96985026192863
0
LWPOLYLINE
5
147
100
AcDbEntity
8
0
100
AcDbPolyline
90
4
70
1
43
0.0
10
355.2329892706133
20
-346.96985026192834
10
357.23298927061336
20
-346.96985026192851
42
0.99999999999999989
10
357.23298927061336
20
-343.96985026192851
10
355.2329892706133
20
-343.9698502619284
42
0.99999999999999989
0
LWPOLYLINE
5
148
100
AcDbEntity
8
0
100
AcDbPolyline
90
4
70
1
43
0.0
10
873.23298927061273
20
-163.96985026192854
10
871.23298927061285
20
-163.96985026192863
42
0.99999999999999989
10
871.23298927061285
20
-166.96985026192863
10
873.23298927061285
20
-166.96985026192849
42
0.99999999999999989
0
LWPOLYLINE
5
149
100
AcDbEntity
8
0
100
AcDbPolyline
90
4
70
1
43
0.0
10
871.23298927061285
20
-256.96985026192857
10
873.23298927061285
20
-256.9698502619284
42
0.99999999999999989
10
873.23298927061285
20
-253.96985026192849
10
871.23298927061285
20
-253.96985026192854
42
0.99999999999999989
0
LWPOLYLINE
5
150
100
AcDbEntity
8
0
100
AcDbPolyline
90
4
70
1
43
0.0
10
612.73298927061296
20
-84.594350261928611
10
612.73298927061307
20
-86.594350261928597
42
0.99999999999999989
10
615.73298927061307
20
-86.594350261928611
10
615.73298927061296
20
-84.594350261928568
42
0.99999999999999989
0
LWPOLYLINE
5
151
100
AcDbEntity
8
0
100
AcDbPolyline
90
4
70
1
43
0.0
10
355.2329892706133
20
-436.96985026192817
10
357.23298927061336
20
-436.96985026192834
42
0.99999999999999989
10
357.23298927061336
20
-433.96985026192851
10
355.2329892706133
20
-433.9698502619284
42
0.99999999999999989
0
LWPOLYLINE
5
152
100
AcDbEntity
8
0
100
AcDbPolyline
90
4
70
1
43
0.0
10
522.7329892706133
20
-604.34535026192793
42
-0.99999999999999989
10
525.73298927061319
20
-604.34535026192793
10
525.73298927061285
20
-606.34535026192793
42
-0.99999999999999989
10
522.73298927061307
20
-606.34535026192793
0
LWPOLYLINE
5
153
100
AcDbEntity
8
0
100
AcDbPolyline
90
4
70
1
43
0.0
10
357.23298927061336
20
-523.9698502619284
10
355.2329892706133
20
-523.96985026192829
42
0.99999999999999989
10
355.2329892706133
20
-526.96985026192817
10
357.23298927061336
20
-526.96985026192817
42
0.99999999999999989
0
LWPOLYLINE
5
154
100
AcDbEntity
8
0
100
AcDbPolyline
90
4
70
1
43
0.0
10
435.73298927061302
20
-606.34535026192793
42
-0.99999999999999989
10
432.73298927061319
20
-606.34535026192793
10
432.73298927061319
20
-604.34535026192793
42
-0.99999999999999989
10
435.7329892706133
20
-604.34535026192793
0
LWPOLYLINE
5
155
100
AcDbEntity
8
0
100
AcDbPolyline
90
4
70
1
43
0.0
10
873.23298927061285
20
-523.96985026192829
10
871.23298927061285
20
-523.96985026192829
42
0.99999999999999989
10
871.23298927061285
20
-526.96985026192829
10
873.23298927061285
20
-526.96985026192817
42
0.99999999999999989
0
LWPOLYLINE
5
156
100
AcDbEntity
8
0
100
AcDbPolyline
90
4
70
1
43
0.0
10
554.63143588002072
20
-371.92758330896322
42
-0.99999999999999989
10
556.75275622358026
20
-374.04890365252288
10
555.33854266120727
20
-375.46311721489616
42
-0.99999999999999989
10
553.21722231764761
20
-373.34179687133627
0
LWPOLYLINE
5
157
100
AcDbEntity
8
0
100
AcDbPolyline
90
4
70
1
43
0.0
10
553.21722231764716
20
-526.39890365252268
10
554.63143588002004
20
-527.8131172148959
42
0.99999999999999989
10
556.75275622357958
20
-525.69179687133624
10
555.3385426612067
20
-524.27758330896313
42
0.99999999999999989
0
LWPOLYLINE
5
158
100
AcDbEntity
8
0
100
AcDbPolyline
90
8
70
1
43
0.0
10
351.2329892706133
20
-615.34535026192816
42
-0.41421356237309503
10
346.2329892706133
20
-610.34535026192816
10
346.2329892706133
20
-80.594350261928554
42
-0.41421356237309398
10
351.2329892706133
20
-75.594350261928568
10
877.23298927061137
20
-75.594350261928525
42
-0.41421356237309503
10
882.23298927061137
20
-80.594350261928511
10
882.23298927061137
20
-610.34535026192816
42
-0.41421356237309503
10
877.23298927061137
20
-615.34535026192816
0
LWPOLYLINE
5
159
100
AcDbEntity
8
0
100
AcDbPolyline
90
4
70
1
43
0.0
10
355.2329892706133
20
-256.96985026192846
42
-0.99999999999999989
10
355.2329892706133
20
-253.96985026192849
10
357.23298927061336
20
-253.96985026192863
42
-0.99999999999999989
10
357.23298927061336
20
-256.96985026192851
0
LWPOLYLINE
5
160
100
AcDbEntity
8
0
100
AcDbPolyline
90
4
70
1
43
0.0
10
615.73298927061296
20
-606.34535026192793
42
-0.99999999999999989
10
612.73298927061296
20
-606.34535026192793
10
612.73298927061307
20
-604.34535026192793
42
-0.99999999999999989
10
615.73298927061307
20
-604.34535026192793
0
LWPOLYLINE
5
161
100
AcDbEntity
8
0
100
AcDbPolyline
90
4
70
1
43
0.0
10
871.23298927061285
20
-436.96985026192851
10
873.23298927061285
20
-436.96985026192817
42
0.99999999999999989
10
873.23298927061285
20
-433.9698502619284
10
871.23298927061285
20
-433.9698502619284
42
0.99999999999999989
0
LWPOLYLINE
5
162
100
AcDbEntity
8
0
100
AcDbPolyline
90
4
70
1
43
0.0
10
795.73298927061273
20
-606.34535026192793
42
-0.99999999999999989
10
792.73298927061296
20
-606.34535026192793
10
792.73298927061296
20
-604.34535026192793
42
-0.99999999999999989
10
795.73298927061296
20
-604.34535026192793
0
LWPOLYLINE
5
163
100
AcDbEntity
8
0
100
AcDbPolyline
90
4
70
1
43
0.0
10
522.73298927061307
20
-84.594350261928611
10
522.73298927061319
20
-86.594350261928597
42
0.99999999999999989
10
525.73298927061319
20
-86.594350261928611
10
525.73298927061296
20
-84.594350261928568
42
0.99999999999999989
0
LWPOLYLINE
5
164
100
AcDbEntity
8
0
100
AcDbPolyline
90
4
70
1
43
0.0
10
435.73298927061319
20
-86.594350261928611
10
435.73298927061302
20
-84.594350261928568
42
0.99999999999999989
10
432.73298927061307
20
-84.594350261928611
10
432.73298927061319
20
-86.594350261928597
42
0.99999999999999989
0
ENDSEC
0
SECTION
2
OBJECTS
0
DICTIONARY
5
C
100
AcDbDictionary
3
ACAD_GROUP
350
D
3
ACAD_MLINESTYLE
350
17
0
DICTIONARY
5
D
100
AcDbDictionary
0
DICTIONARY
5
1A
330
C
100
AcDbDictionary
0
DICTIONARY
5
17
100
AcDbDictionary
0
ENDSEC
0
EOF
